<mxfile host="app.diagrams.net" modified="2022-10-10T11:15:30.862Z" agent="5.0 (Windows)" etag="hOIEtQm_2O7rMw6BDFq8" version="20.4.0" type="github">
  <diagram id="uzyZZr1vMDRMlrvgHleE" name="Page-1">
    <mxGraphModel dx="1022" dy="420" grid="1" gridSize="10" guides="1" tooltips="1" connect="1" arrows="1" fold="1" page="1" pageScale="1" pageWidth="850" pageHeight="1100" math="0" shadow="0">
      <root>
        <mxCell id="0" />
        <mxCell id="1" parent="0" />
        <mxCell id="h2DTba8jX6TKWyeHh0mG-4" value="" style="swimlane;startSize=0;fillColor=#B2C9AB;strokeColor=#788AA3;fontColor=#46495D;rounded=1;" parent="1" vertex="1">
          <mxGeometry x="690" y="90" width="155" height="230" as="geometry" />
        </mxCell>
        <mxCell id="gQUuSp3Y3fDiH9KxwUEZ-14" value="" style="strokeWidth=2;html=1;shape=mxgraph.flowchart.database;whiteSpace=wrap;fillColor=#dae8fc;strokeColor=#6c8ebf;" parent="h2DTba8jX6TKWyeHh0mG-4" vertex="1">
          <mxGeometry x="35" y="55" width="80" height="125" as="geometry" />
        </mxCell>
        <mxCell id="gQUuSp3Y3fDiH9KxwUEZ-16" value="Employee data from DAH" style="text;html=1;align=center;verticalAlign=middle;resizable=0;points=[];autosize=1;strokeColor=none;fillColor=none;fontStyle=1" parent="h2DTba8jX6TKWyeHh0mG-4" vertex="1">
          <mxGeometry x="-10" y="180" width="170" height="30" as="geometry" />
        </mxCell>
        <mxCell id="h2DTba8jX6TKWyeHh0mG-13" value="Application server" style="text;html=1;align=center;verticalAlign=middle;resizable=0;points=[];autosize=1;strokeColor=none;fillColor=none;fontColor=#46495D;rounded=1;fontStyle=1" parent="1" vertex="1">
          <mxGeometry x="165" y="345" width="130" height="30" as="geometry" />
        </mxCell>
        <mxCell id="h2DTba8jX6TKWyeHh0mG-47" value="Source Interface" style="text;html=1;align=center;verticalAlign=middle;resizable=0;points=[];autosize=1;strokeColor=none;fillColor=none;fontStyle=1" parent="1" vertex="1">
          <mxGeometry x="700" y="330" width="120" height="30" as="geometry" />
        </mxCell>
        <mxCell id="h2DTba8jX6TKWyeHh0mG-50" value="SL3 layer&lt;span style=&quot;white-space: pre;&quot;&gt; &lt;/span&gt;" style="text;html=1;align=center;verticalAlign=middle;resizable=0;points=[];autosize=1;strokeColor=none;fillColor=none;fontStyle=1" parent="1" vertex="1">
          <mxGeometry x="710" y="350" width="100" height="30" as="geometry" />
        </mxCell>
        <mxCell id="gQUuSp3Y3fDiH9KxwUEZ-1" value="" style="swimlane;startSize=0;rounded=1;dashed=1;" parent="1" vertex="1">
          <mxGeometry x="130" y="40" width="447.5" height="340" as="geometry" />
        </mxCell>
        <mxCell id="gQUuSp3Y3fDiH9KxwUEZ-13" value="&lt;font style=&quot;font-size: 11px;&quot;&gt;Oracle Database with Location data&lt;/font&gt;" style="text;html=1;align=center;verticalAlign=middle;resizable=0;points=[];autosize=1;strokeColor=none;fillColor=none;fontStyle=1;container=1;" parent="gQUuSp3Y3fDiH9KxwUEZ-1" vertex="1">
          <mxGeometry x="237.5" y="260" width="210" height="30" as="geometry" />
        </mxCell>
        <mxCell id="gQUuSp3Y3fDiH9KxwUEZ-3" value="" style="outlineConnect=0;fontColor=#46495D;fillColor=#B2C9AB;strokeColor=none;dashed=0;verticalLabelPosition=bottom;verticalAlign=top;align=center;html=1;fontSize=12;fontStyle=0;aspect=fixed;pointerEvents=1;shape=mxgraph.aws4.rds_oracle_instance;rounded=1;" parent="gQUuSp3Y3fDiH9KxwUEZ-1" vertex="1">
          <mxGeometry x="280" y="100" width="140" height="140" as="geometry" />
        </mxCell>
        <mxCell id="gQUuSp3Y3fDiH9KxwUEZ-25" value="&lt;span&gt;ADFS (OIDC)&lt;br&gt;&lt;/span&gt;" style="whiteSpace=wrap;html=1;fontSize=11;fontStyle=1;fillColor=#dae8fc;strokeColor=#6c8ebf;" parent="gQUuSp3Y3fDiH9KxwUEZ-1" vertex="1">
          <mxGeometry x="200" y="60" width="80" height="40" as="geometry" />
        </mxCell>
        <mxCell id="gQUuSp3Y3fDiH9KxwUEZ-40" value="" style="endArrow=classic;startArrow=classic;html=1;rounded=0;fontSize=10;" parent="gQUuSp3Y3fDiH9KxwUEZ-1" edge="1">
          <mxGeometry width="50" height="50" relative="1" as="geometry">
            <mxPoint x="160" y="130" as="sourcePoint" />
            <mxPoint x="278.75" y="130" as="targetPoint" />
            <Array as="points">
              <mxPoint x="198.75" y="130" />
            </Array>
          </mxGeometry>
        </mxCell>
        <mxCell id="gQUuSp3Y3fDiH9KxwUEZ-4" value="Desktop and Mobile" style="strokeColor=#dddddd;shadow=1;strokeWidth=1;rounded=1;absoluteArcSize=1;arcSize=2;labelPosition=center;verticalLabelPosition=middle;align=center;verticalAlign=bottom;spacingLeft=0;fontColor=#999999;fontSize=12;whiteSpace=wrap;spacingBottom=2;" parent="1" vertex="1">
          <mxGeometry x="20" y="165" width="70" height="100" as="geometry" />
        </mxCell>
        <mxCell id="gQUuSp3Y3fDiH9KxwUEZ-5" value="" style="sketch=0;dashed=0;connectable=0;html=1;fillColor=#757575;strokeColor=none;shape=mxgraph.gcp2.desktop_and_mobile;part=1;fontSize=10;" parent="gQUuSp3Y3fDiH9KxwUEZ-4" vertex="1">
          <mxGeometry x="0.5" width="50" height="33" relative="1" as="geometry">
            <mxPoint x="-25" y="18.5" as="offset" />
          </mxGeometry>
        </mxCell>
        <mxCell id="gQUuSp3Y3fDiH9KxwUEZ-21" style="edgeStyle=orthogonalEdgeStyle;rounded=0;orthogonalLoop=1;jettySize=auto;html=1;entryX=1;entryY=0.4;entryDx=0;entryDy=0;entryPerimeter=0;fontSize=11;" parent="1" source="gQUuSp3Y3fDiH9KxwUEZ-6" target="gQUuSp3Y3fDiH9KxwUEZ-4" edge="1">
          <mxGeometry relative="1" as="geometry" />
        </mxCell>
        <mxCell id="gQUuSp3Y3fDiH9KxwUEZ-6" value="" style="swimlane;startSize=0;fillColor=#B2C9AB;strokeColor=#788AA3;fontColor=#46495D;rounded=1;" parent="1" vertex="1">
          <mxGeometry x="160" y="80" width="150" height="250" as="geometry">
            <mxRectangle x="160" y="80" width="50" height="40" as="alternateBounds" />
          </mxGeometry>
        </mxCell>
        <mxCell id="gQUuSp3Y3fDiH9KxwUEZ-7" value="Apex SQL Engine" style="rounded=1;whiteSpace=wrap;html=1;fillColor=#B2C9AB;strokeColor=#788AA3;fontColor=#46495D;" parent="gQUuSp3Y3fDiH9KxwUEZ-6" vertex="1">
          <mxGeometry x="20" y="140" width="110" height="40" as="geometry" />
        </mxCell>
        <mxCell id="gQUuSp3Y3fDiH9KxwUEZ-8" value="ORDS" style="rounded=1;whiteSpace=wrap;html=1;fillColor=#B2C9AB;strokeColor=#788AA3;fontColor=#46495D;" parent="gQUuSp3Y3fDiH9KxwUEZ-6" vertex="1">
          <mxGeometry x="25" y="30" width="100" height="70" as="geometry" />
        </mxCell>
        <mxCell id="gQUuSp3Y3fDiH9KxwUEZ-9" value="" style="endArrow=classic;startArrow=classic;html=1;rounded=1;entryX=0.5;entryY=1;entryDx=0;entryDy=0;strokeColor=#788AA3;fontColor=#46495D;curved=1;" parent="gQUuSp3Y3fDiH9KxwUEZ-6" source="gQUuSp3Y3fDiH9KxwUEZ-7" target="gQUuSp3Y3fDiH9KxwUEZ-8" edge="1">
          <mxGeometry width="50" height="50" relative="1" as="geometry">
            <mxPoint x="240" y="190" as="sourcePoint" />
            <mxPoint x="290" y="140" as="targetPoint" />
          </mxGeometry>
        </mxCell>
        <mxCell id="gQUuSp3Y3fDiH9KxwUEZ-10" value="Email Service" style="rounded=1;whiteSpace=wrap;html=1;fillColor=#B2C9AB;strokeColor=#788AA3;fontColor=#46495D;" parent="gQUuSp3Y3fDiH9KxwUEZ-6" vertex="1">
          <mxGeometry x="20" y="200" width="110" height="30" as="geometry" />
        </mxCell>
        <mxCell id="gQUuSp3Y3fDiH9KxwUEZ-11" value="" style="endArrow=classic;startArrow=classic;html=1;rounded=0;fontSize=10;exitX=1;exitY=0.5;exitDx=0;exitDy=0;" parent="gQUuSp3Y3fDiH9KxwUEZ-6" source="gQUuSp3Y3fDiH9KxwUEZ-7" edge="1">
          <mxGeometry width="50" height="50" relative="1" as="geometry">
            <mxPoint x="130" y="200" as="sourcePoint" />
            <mxPoint x="240" y="160" as="targetPoint" />
            <Array as="points">
              <mxPoint x="180" y="160" />
            </Array>
          </mxGeometry>
        </mxCell>
        <mxCell id="gQUuSp3Y3fDiH9KxwUEZ-19" style="edgeStyle=orthogonalEdgeStyle;rounded=0;orthogonalLoop=1;jettySize=auto;html=1;" parent="1" source="gQUuSp3Y3fDiH9KxwUEZ-14" edge="1">
          <mxGeometry relative="1" as="geometry">
            <mxPoint x="540" y="210" as="targetPoint" />
          </mxGeometry>
        </mxCell>
        <mxCell id="gQUuSp3Y3fDiH9KxwUEZ-18" value="" style="outlineConnect=0;dashed=0;verticalLabelPosition=bottom;verticalAlign=top;align=center;html=1;shape=mxgraph.aws3.api_gateway;fillColor=#D9A741;gradientColor=none;" parent="1" vertex="1">
          <mxGeometry x="600" y="173.5" width="60" height="86.5" as="geometry" />
        </mxCell>
        <mxCell id="gQUuSp3Y3fDiH9KxwUEZ-20" value="&lt;b&gt;API gateway&lt;br&gt;&lt;/b&gt;" style="text;html=1;align=center;verticalAlign=middle;resizable=0;points=[];autosize=1;strokeColor=none;fillColor=none;fontSize=11;" parent="1" vertex="1">
          <mxGeometry x="585" y="260" width="90" height="30" as="geometry" />
        </mxCell>
        <mxCell id="gQUuSp3Y3fDiH9KxwUEZ-22" value="&lt;b&gt;SL2&lt;/b&gt;" style="text;html=1;align=center;verticalAlign=middle;resizable=0;points=[];autosize=1;strokeColor=none;fillColor=none;fontSize=11;" parent="1" vertex="1">
          <mxGeometry x="310" y="375" width="40" height="30" as="geometry" />
        </mxCell>
        <mxCell id="gQUuSp3Y3fDiH9KxwUEZ-28" value="" style="endArrow=classic;startArrow=classic;html=1;rounded=0;fontSize=11;exitX=1;exitY=0.25;exitDx=0;exitDy=0;" parent="1" source="gQUuSp3Y3fDiH9KxwUEZ-8" edge="1">
          <mxGeometry width="50" height="50" relative="1" as="geometry">
            <mxPoint x="280" y="240" as="sourcePoint" />
            <mxPoint x="330" y="128" as="targetPoint" />
          </mxGeometry>
        </mxCell>
      </root>
    </mxGraphModel>
  </diagram>
</mxfile>
